<svg width="29" height="28" viewBox="0 0 29 28" fill="none" xmlns="http://www.w3.org/2000/svg">
<path d="M19.0711 28H18.8939C12.8413 28 9.92406 25.6144 9.41968 20.2707C9.36515 19.7118 9.77411 19.2074 10.3466 19.1528C10.9056 19.0983 11.4099 19.5209 11.4645 20.0798C11.8598 24.3602 13.8773 25.9552 18.9075 25.9552H19.0847C24.6329 25.9552 26.5959 23.9922 26.5959 18.444V9.55597C26.5959 4.00778 24.6329 2.04479 19.0847 2.04479H18.9075C13.85 2.04479 11.8325 3.66699 11.4645 8.0292C11.3963 8.58811 10.9328 9.0107 10.3466 8.95617C9.77411 8.91527 9.36515 8.41089 9.40604 7.85198C9.86953 2.42648 12.8004 0 18.8939 0H19.0711C25.7643 0 28.627 2.8627 28.627 9.55597V18.444C28.627 25.1373 25.7643 28 19.0711 28Z" fill="#8BF7D1"/>
<path d="M18.5803 15.0223H1.02239C0.463485 15.0223 0 14.5588 0 13.9999C0 13.441 0.463485 12.9775 1.02239 12.9775H18.5803C19.1392 12.9775 19.6027 13.441 19.6027 13.9999C19.6027 14.5588 19.1528 15.0223 18.5803 15.0223Z" fill="#8BF7D1"/>
<path d="M15.5403 19.5888C15.2813 19.5888 15.0223 19.4934 14.8178 19.2889C14.4225 18.8936 14.4225 18.2393 14.8178 17.8439L18.662 13.9997L14.8178 10.1555C14.4225 9.76022 14.4225 9.10588 14.8178 8.71056C15.2132 8.31523 15.8675 8.31523 16.2628 8.71056L20.8295 13.2772C21.2248 13.6726 21.2248 14.3269 20.8295 14.7222L16.2628 19.2889C16.0583 19.4934 15.7993 19.5888 15.5403 19.5888Z" fill="#8BF7D1"/>
</svg>
