<svg width="122" height="126" viewBox="0 0 122 126" fill="none" xmlns="http://www.w3.org/2000/svg">
<path d="M104.804 19.2963L75.4273 4.26851C56.6944 -6.07495 40.5941 5.63153 40.5941 5.63153L15.9007 20.6593C-0.269073 30.6663 0.000279994 48.5409 0.000279994 48.5409L1.42523 84.2643C2.88494 97.8514 13.9023 104.856 13.9023 104.856L49.6304 123.266C62.985 129.986 77.0608 122.187 77.0608 122.187L104.3 105.348C120.974 97.0318 121.156 79.5627 121.156 79.5627L119.783 45.1161C118.55 25.1538 104.804 19.2963 104.804 19.2963ZM101.902 91.39C101.902 91.39 101.042 106.064 90.2329 110.886C79.4068 115.726 68.2417 111.749 68.2417 111.749L30.437 91.7178C30.437 91.7178 21.0357 86.9731 20.497 73.4118L18.9244 33.7978C18.9244 33.7978 18.8462 22.5141 30.2806 15.19C41.7237 7.85723 52.993 14.3014 52.993 14.3014L86.3491 31.5031C86.3491 31.5031 99.5212 35.92 100.295 50.8788L101.902 91.39Z" fill="#90E1CF"/>
<path d="M90.8779 75.5584C90.5998 81.6488 85.6212 86.6782 79.4956 87.0406C74.152 87.3598 69.4862 84.2369 67.5486 79.682L56.1924 61.1517C55.4712 59.9699 53.7248 59.9871 53.0384 61.1949C52.3085 62.4889 51.8915 64.0158 51.9002 65.6462V65.7066C51.9088 66.9316 52.2651 68.1221 52.8907 69.1832C53.2469 69.7871 53.551 70.4168 53.803 71.0811C54.2722 72.332 54.5415 73.6691 54.5676 75.0753C54.6806 81.4073 49.6845 86.868 43.3244 87.3252C36.2517 87.8429 30.326 82.3217 30.2739 75.3945C30.2217 69.1401 34.9832 63.9554 41.1174 63.3084C41.5171 63.2653 41.9168 63.2394 42.3252 63.2394C42.5684 63.2394 42.8117 63.2394 43.055 63.248C44.6537 63.3343 46.2698 62.9978 47.5732 62.0834C48.8939 61.1517 49.9973 59.8146 50.675 58.1755C50.927 57.563 51.1008 56.9419 51.2137 56.3207C51.4744 54.8715 51.2659 53.3618 50.6055 52.0333C50.2927 51.4121 50.0495 50.7479 49.8844 50.0577C49.6932 49.3158 49.5976 48.5394 49.589 47.7371C49.5455 41.8192 54.6719 37.0486 60.7887 37.6956C63.3432 37.963 65.6197 39.2053 67.2445 41.0342L67.9743 41.9572L88.2365 67.4751H88.2278C90.0003 69.6663 91.0169 72.4873 90.8779 75.5584Z" fill="white"/>
</svg>
